<svg width="21" height="22" viewBox="0 0 21 22" fill="none" xmlns="http://www.w3.org/2000/svg">
<path d="M10.6556 0.99469C10.0243 0.99469 9.50772 1.51125 9.50772 2.1426V11.3259C9.50772 11.9572 10.0243 12.4738 10.6556 12.4738C11.287 12.4738 11.8035 11.9572 11.8035 11.3259V2.1426C11.8035 1.51125 11.287 0.99469 10.6556 0.99469ZM16.5559 4.27771C16.1082 4.7254 16.1197 5.42562 16.5444 5.87331C17.8415 7.2508 18.6451 9.08746 18.691 11.1193C18.7943 15.5158 15.1554 19.3039 10.7589 19.3498C6.27061 19.4186 2.62026 15.8027 2.62026 11.3259C2.62026 9.21373 3.43527 7.29672 4.76685 5.86183C5.19158 5.41414 5.19158 4.71392 4.75537 4.27771C4.29621 3.81855 3.55006 3.83003 3.11386 4.30067C1.44939 6.06845 0.40479 8.42167 0.324436 11.0274C0.163729 16.6292 4.72093 21.4734 10.3227 21.6456C16.1771 21.8293 20.9868 17.1343 20.9868 11.3144C20.9868 8.59385 19.9307 6.13733 18.2089 4.30067C17.7727 3.83003 17.015 3.81855 16.5559 4.27771Z" fill="#333333"/>
</svg>
