<svg width="23" height="25" viewBox="0 0 23 25" fill="none" xmlns="http://www.w3.org/2000/svg">
<path fill-rule="evenodd" clip-rule="evenodd" d="M3.33492 20.354C9.1165 19.5094 13.0973 19.582 18.8865 20.3836C19.3057 20.4444 19.6888 20.6548 19.965 20.976C20.2412 21.2972 20.3919 21.7075 20.3891 22.1311C20.3891 22.5366 20.2497 22.9302 19.998 23.2376C19.5593 23.7737 19.1099 24.3008 18.65 24.8188H20.8807C21.0209 24.6516 21.162 24.4809 21.3047 24.3078C21.8057 23.6934 22.079 22.9248 22.0784 22.132C22.0784 20.4216 20.83 18.9477 19.1179 18.7112C13.1919 17.891 9.04977 17.8125 3.09082 18.6833C1.36099 18.9359 0.117676 20.4326 0.117676 22.1548C0.117676 22.9192 0.366845 23.6752 0.839001 24.2875C0.978367 24.4683 1.11604 24.6456 1.25288 24.8196H3.42952C3.00164 24.3074 2.5843 23.7864 2.17776 23.2571C1.93616 22.9402 1.80583 22.5524 1.80696 22.154C1.80696 21.2443 2.46072 20.4816 3.33492 20.354ZM11.098 12.1492C11.7636 12.1492 12.4226 12.0181 13.0374 11.7634C13.6523 11.5087 14.211 11.1354 14.6815 10.6648C15.1521 10.1942 15.5254 9.63555 15.7801 9.02069C16.0348 8.40582 16.1659 7.74682 16.1659 7.0813C16.1659 6.41578 16.0348 5.75678 15.7801 5.14192C15.5254 4.52705 15.1521 3.96838 14.6815 3.49778C14.211 3.02719 13.6523 2.65389 13.0374 2.39921C12.4226 2.14453 11.7636 2.01344 11.098 2.01344C9.75395 2.01344 8.46492 2.54738 7.51452 3.49778C6.56411 4.44819 6.03018 5.73722 6.03018 7.0813C6.03018 8.42538 6.56411 9.71441 7.51452 10.6648C8.46492 11.6152 9.75395 12.1492 11.098 12.1492ZM11.098 13.8384C12.8901 13.8384 14.6088 13.1265 15.8761 11.8593C17.1433 10.5921 17.8552 8.87341 17.8552 7.0813C17.8552 5.28919 17.1433 3.57049 15.8761 2.30328C14.6088 1.03607 12.8901 0.324158 11.098 0.324158C9.30593 0.324158 7.58722 1.03607 6.32001 2.30328C5.0528 3.57049 4.34089 5.28919 4.34089 7.0813C4.34089 8.87341 5.0528 10.5921 6.32001 11.8593C7.58722 13.1265 9.30593 13.8384 11.098 13.8384Z" fill="black"/>
</svg>
