<svg width="19" height="23" viewBox="0 0 19 23" fill="none" xmlns="http://www.w3.org/2000/svg">
<path d="M9.50799 0.120056C4.68677 0.120056 0.324707 3.81633 0.324707 9.53292C0.324707 13.1833 3.13709 17.4765 8.75037 22.4239C9.18657 22.8028 9.84088 22.8028 10.2771 22.4239C15.8789 17.4765 18.6913 13.1833 18.6913 9.53292C18.6913 3.81633 14.3292 0.120056 9.50799 0.120056ZM9.50799 11.5992C8.24529 11.5992 7.21217 10.566 7.21217 9.30334C7.21217 8.04064 8.24529 7.00752 9.50799 7.00752C10.7707 7.00752 11.8038 8.04064 11.8038 9.30334C11.8038 10.566 10.7707 11.5992 9.50799 11.5992Z" fill="#4F4F4F"/>
</svg>
