<svg width="23" height="22" viewBox="0 0 23 22" fill="none" xmlns="http://www.w3.org/2000/svg">
<path d="M20.0493 1.2012C19.9781 1.02372 19.8555 0.871632 19.6971 0.764552C19.5387 0.657472 19.3518 0.600317 19.1606 0.600464H3.85513C3.66393 0.600317 3.47707 0.657472 3.31866 0.764552C3.16026 0.871632 3.03758 1.02372 2.96645 1.2012L1.05327 5.98416C1.00844 6.09745 0.985397 6.21818 0.985352 6.34001V20.6889C0.985352 20.9426 1.08613 21.1859 1.26553 21.3653C1.44493 21.5447 1.68824 21.6455 1.94194 21.6455H21.0738C21.3275 21.6455 21.5708 21.5447 21.7502 21.3653C21.9296 21.1859 22.0304 20.9426 22.0304 20.6889V6.34001C22.0303 6.21818 22.0073 6.09745 21.9624 5.98416L20.0493 1.2012ZM4.50274 2.51365H18.513L19.6609 5.38342H3.35483L4.50274 2.51365ZM2.89853 19.7323V7.29661H20.1172V19.7323H2.89853Z" fill="#4F4F4F"/>
</svg>
