<svg xmlns="http://www.w3.org/2000/svg" xmlns:xlink="http://www.w3.org/1999/xlink" width="42" height="42" viewBox="0 0 42 42">
  <defs>
    <style>
      .cls-1 {
        clip-path: url(#clip-Pickup);
      }

      .cls-2 {
        fill: rgba(0,0,0,0.7);
      }
    </style>
    <clipPath id="clip-Pickup">
      <rect width="42" height="42"/>
    </clipPath>
  </defs>
  <g id="Pickup" className="cls-1">
    <g id="shop-svgrepo-com" transform="translate(4 17)">
      <g id="Group_922" data-name="Group 922" transform="translate(5 -7)">
        <path id="Path_15158" data-name="Path 15158" className="cls-2" d="M252.427,263.75H249.6a1.4,1.4,0,0,0-1.4,1.4v2.167a1.4,1.4,0,0,0,1.4,1.4h2.825a1.4,1.4,0,0,0,1.4-1.4v-2.167A1.4,1.4,0,0,0,252.427,263.75Zm.382,3.569a.383.383,0,0,1-.382.382H249.6a.383.383,0,0,1-.382-.382v-2.167a.383.383,0,0,1,.382-.382h2.825a.383.383,0,0,1,.382.382Z" transform="translate(-235.301 -251.647)"/>
        <path id="Path_15159" data-name="Path 15159" className="cls-2" d="M24.177,37.966a.55.55,0,0,0-.079-.291l-3.6-6.323a.6.6,0,0,0-.514-.3H4.184a.586.586,0,0,0-.514.3L.079,37.675A.6.6,0,0,0,0,37.966a3.468,3.468,0,0,0,2.075,3.172V51.567a.6.6,0,0,0,.593.593H21.5a.6.6,0,0,0,.593-.593V41.212a.261.261,0,0,0,0-.064A3.478,3.478,0,0,0,24.177,37.966ZM4.53,32.241H19.642l2.811,4.945H1.724Zm12.676,6.126a2.278,2.278,0,0,1-4.486,0Zm-5.745,0a2.281,2.281,0,0,1-4.491,0Zm-10.236,0H5.716a2.281,2.281,0,0,1-4.491,0ZM9.959,50.974H6.551v-6.4a.844.844,0,0,1,.845-.845H9.12a.844.844,0,0,1,.845.845v6.4Zm10.952,0H11.145v-6.4a2.034,2.034,0,0,0-2.03-2.03H7.391a2.034,2.034,0,0,0-2.03,2.03v6.4h-2.1V41.429c.069,0,.138,0,.207,0A3.464,3.464,0,0,0,6.343,39.9a3.465,3.465,0,0,0,5.75,0,3.455,3.455,0,0,0,5.74,0,3.464,3.464,0,0,0,2.875,1.531c.069,0,.133,0,.2,0v9.544Zm-.2-10.725a2.277,2.277,0,0,1-2.243-1.877h4.491A2.291,2.291,0,0,1,20.709,40.249Z" transform="translate(0 -31.05)"/>
      </g>
    </g>
  </g>
</svg>
