<svg xmlns="http://www.w3.org/2000/svg" xmlns:xlink="http://www.w3.org/1999/xlink" width="42" height="42" viewBox="0 0 42 42">
  <defs>
    <style>
      .cls-1 {
        clip-path: url(#clip-Shipping_Active_);
      }

      .cls-2 {
        isolation: isolate;
      }

      .cls-3 {
        fill: #cbae78;
      }
    </style>
    <clipPath id="clip-Shipping_Active_">
      <rect width="42" height="42"/>
    </clipPath>
  </defs>
  <g id="Shipping_Active_" data-name="Shipping (Active)" className="cls-1">
    <g id="delivery-svgrepo-com" className="cls-2" transform="translate(2 12)">
      <path id="Path_15151" data-name="Path 15151" className="cls-3" d="M40.947,79.729a3.21,3.21,0,1,0,3.21,3.21A3.214,3.214,0,0,0,40.947,79.729Zm0,4.5a1.3,1.3,0,1,1,1.3-1.3A1.3,1.3,0,0,1,40.947,84.234Z" transform="translate(-27.727 -68.341)"/>
      <path id="Path_15152" data-name="Path 15152" className="cls-3" d="M108.672,79.729a3.21,3.21,0,1,0,3.21,3.21A3.213,3.213,0,0,0,108.672,79.729Zm0,4.5a1.3,1.3,0,1,1,1.3-1.3A1.3,1.3,0,0,1,108.672,84.234Z" transform="translate(-77.487 -68.341)"/>
      <path id="Path_15153" data-name="Path 15153" className="cls-3" d="M42.355,36.8H28.822a3.354,3.354,0,0,0-3.35,3.35V51.268a.957.957,0,0,0,1.915,0V40.146a1.438,1.438,0,0,1,1.436-1.436H42.355a1.438,1.438,0,0,1,1.436,1.436v8.729a1.438,1.438,0,0,1-1.436,1.436H36.782a.957.957,0,1,0,0,1.914h5.573a3.354,3.354,0,0,0,3.35-3.35V40.146A3.354,3.354,0,0,0,42.355,36.8Z" transform="translate(-18.715 -36.796)"/>
      <path id="Path_15154" data-name="Path 15154" className="cls-3" d="M114.875,59.419l-2.252-4.63a.957.957,0,0,0-.861-.538h-5.131a.957.957,0,1,0,0,1.914h4.532l1.894,3.893v4.034a.957.957,0,0,0,1.915,0V59.838A.964.964,0,0,0,114.875,59.419Z" transform="translate(-77.643 -49.621)"/>
      <path id="Path_15155" data-name="Path 15155" className="cls-3" d="M4.467,72.2H.479a.479.479,0,0,0,0,.958H4.467a.479.479,0,0,0,0-.958Z" transform="translate(0 -62.81)"/>
      <path id="Path_15156" data-name="Path 15156" className="cls-3" d="M9.549,81.4H7.4a.479.479,0,0,0,0,.958H9.549a.479.479,0,0,0,0-.958Z" transform="translate(-5.082 -69.57)"/>
      <path id="Path_15157" data-name="Path 15157" className="cls-3" d="M64.374,56.858a.479.479,0,0,0,.479-.479V51.952c0-1.429-.765-2.154-2.273-2.154H57.316a.479.479,0,0,0,0,.958h5.264c1.1,0,1.316.438,1.316,1.2v4.427A.479.479,0,0,0,64.374,56.858Z" transform="translate(-41.761 -46.349)"/>
    </g>
  </g>
</svg>
