<?xml version="1.0" standalone="no"?>
<!DOCTYPE svg PUBLIC "-//W3C//DTD SVG 20010904//EN"
 "http://www.w3.org/TR/2001/REC-SVG-20010904/DTD/svg10.dtd">
<svg version="1.0" xmlns="http://www.w3.org/2000/svg"
 width="282.000000pt" height="298.000000pt" viewBox="0 0 282.000000 298.000000"
 preserveAspectRatio="xMidYMid meet">

<g transform="translate(0.000000,298.000000) scale(0.100000,-0.100000)"
fill="#000000" stroke="none">
<path d="M1170 2970 c0 -5 11 -10 24 -10 40 0 56 -25 56 -86 0 -52 2 -55 23
-52 19 3 22 10 25 55 3 55 25 83 64 83 10 0 18 5 18 10 0 6 -42 10 -105 10
-63 0 -105 -4 -105 -10z"/>
<path d="M1253 2806 c-104 -34 -176 -98 -222 -196 -23 -48 -26 -68 -26 -160 0
-94 3 -111 28 -166 31 -68 81 -121 142 -153 49 -26 65 -26 65 -2 0 12 -17 29
-45 45 -96 57 -150 166 -150 306 0 133 45 213 150 268 44 23 62 27 146 27 88
0 99 -2 136 -28 50 -35 84 -94 93 -166 6 -43 7 -30 6 59 l-1 114 -56 29 c-69
35 -196 46 -266 23z"/>
<path d="M1268 2763 c-16 -4 -18 -20 -18 -148 0 -139 -1 -145 -22 -156 l-23
-12 23 -10 c22 -10 22 -11 22 -252 0 -261 2 -253 -55 -273 -23 -8 27 -11 205
-11 l236 -1 21 85 c23 95 21 98 -17 22 -14 -29 -36 -57 -50 -64 -34 -17 -261
-18 -278 -1 -9 9 -12 78 -12 248 0 235 0 237 22 247 l23 10 -23 12 c-21 11
-22 17 -22 161 0 83 -3 149 -7 149 -5 -1 -16 -3 -25 -6z"/>
<path d="M1620 2294 c-51 -98 -160 -164 -267 -164 -37 0 -43 -3 -43 -21 0 -19
4 -20 53 -14 110 14 205 82 262 186 15 28 25 52 23 54 -2 2 -14 -16 -28 -41z"/>
<path d="M551 2006 c-17 -20 -3 -44 30 -51 20 -5 29 -13 29 -26 0 -25 -45 -26
-60 -1 -10 15 -10 15 -8 -3 2 -14 12 -21 34 -23 58 -6 70 50 13 62 -32 6 -40
33 -13 43 11 4 22 -1 30 -12 12 -16 14 -16 14 -3 0 28 -49 38 -69 14z"/>
<path d="M2032 2008 c-20 -20 -13 -32 7 -14 20 18 41 14 41 -7 0 -7 -13 -24
-30 -39 -41 -36 -38 -48 13 -46 36 1 38 2 10 5 -18 2 -33 7 -33 10 0 4 14 18
31 33 28 23 30 29 20 48 -13 24 -40 29 -59 10z"/>
<path d="M2122 2008 c-13 -13 -16 -66 -6 -92 7 -19 45 -21 62 -4 15 15 16 63
2 89 -12 21 -40 25 -58 7z m54 -34 c8 -30 -1 -53 -22 -61 -19 -7 -34 13 -34
48 0 50 44 61 56 13z"/>
<path d="M2212 2008 c-19 -19 -14 -33 6 -16 19 17 42 14 42 -6 0 -6 -13 -23
-30 -38 -41 -36 -38 -48 13 -46 36 1 38 2 10 5 -40 5 -42 17 -7 39 18 12 24
24 22 43 -3 29 -35 40 -56 19z"/>
<path d="M2301 2006 c-7 -8 -11 -34 -9 -58 3 -37 6 -43 27 -46 15 -3 30 3 38
14 38 52 -16 138 -56 90z m55 -31 c7 -30 -13 -67 -34 -63 -21 4 -29 63 -12 83
15 18 39 8 46 -20z"/>
<path d="M450 1955 l0 -55 43 2 42 1 -37 4 -38 4 3 50 c2 27 0 49 -5 49 -4 0
-8 -25 -8 -55z"/>
<path d="M671 1953 c1 -62 6 -56 11 15 2 23 0 42 -4 42 -5 0 -7 -26 -7 -57z"/>
<path d="M1262 1450 c-82 -19 -161 -102 -182 -191 -40 -167 77 -329 237 -329
81 0 122 17 181 77 30 30 51 58 46 62 -5 4 -31 20 -59 36 l-50 28 24 -26 c30
-33 23 -65 -28 -119 -34 -37 -44 -42 -94 -46 -77 -6 -120 21 -156 97 -22 48
-26 70 -26 151 0 113 20 174 70 219 66 58 161 50 216 -19 40 -50 46 -83 20
-109 -27 -27 -23 -26 33 5 25 14 46 32 46 40 0 8 -20 34 -44 59 -63 62 -147
86 -234 65z"/>
<path d="M2173 1453 c9 -2 23 -2 30 0 6 3 -1 5 -18 5 -16 0 -22 -2 -12 -5z"/>
<path d="M10 1190 l0 -260 40 0 40 0 0 260 0 260 -40 0 -40 0 0 -260z"/>
<path d="M560 1446 c0 -3 4 -16 10 -30 6 -18 5 -38 -7 -71 -8 -25 -13 -48 -11
-51 3 -2 11 15 18 38 l13 43 38 -115 c21 -63 38 -121 38 -127 1 -10 -21 -13
-79 -13 l-79 0 14 41 c8 23 15 47 14 53 0 6 -14 -27 -30 -74 -16 -46 -29 -89
-28 -95 0 -5 6 6 13 25 l13 35 85 3 86 3 27 -82 c23 -67 25 -83 14 -90 -9 -5
12 -9 55 -9 58 0 67 2 54 13 -8 6 -51 123 -94 260 l-78 247 -43 0 c-24 0 -43
-2 -43 -4z"/>
<path d="M1714 1417 c4 -20 0 -51 -9 -77 -8 -23 -15 -48 -14 -54 0 -6 9 12 18
39 l18 50 40 -125 41 -125 -75 -3 c-42 -2 -78 -1 -80 2 -3 3 3 28 12 56 9 28
15 53 13 55 -2 3 -19 -41 -37 -96 -18 -55 -31 -102 -29 -105 3 -2 10 14 17 36
l12 41 86 -3 86 -3 24 -70 c13 -38 22 -78 19 -87 -4 -16 4 -18 57 -18 34 0 57
4 50 8 -6 4 -37 86 -68 182 -31 96 -68 210 -81 253 l-26 77 -40 0 c-40 0 -40
0 -34 -33z"/>
<path d="M2073 1430 c-41 -25 -63 -68 -63 -123 0 -64 32 -90 149 -121 109 -28
143 -49 155 -99 13 -52 -16 -124 -58 -143 -21 -9 -25 -13 -12 -14 34 0 98 44
117 82 24 46 24 93 1 138 -25 50 -69 75 -166 93 -103 19 -135 33 -156 69 -14
25 -13 30 4 62 11 21 35 43 60 56 27 13 34 20 21 20 -11 0 -34 -9 -52 -20z"/>
<path d="M2244 1429 c22 -17 26 -28 26 -70 0 -53 3 -54 55 -16 18 14 18 17 5
41 -15 30 -68 66 -95 66 -14 0 -12 -4 9 -21z"/>
<path d="M2536 1413 c4 -21 10 -42 14 -48 4 -5 22 -56 39 -112 17 -56 34 -109
37 -118 5 -13 -6 -15 -75 -15 -58 0 -81 4 -82 13 0 6 -9 -13 -20 -43 -47 -135
-49 -139 -82 -149 -26 -8 -18 -9 43 -9 41 1 65 3 53 5 -42 8 -46 26 -22 102
l23 71 87 0 86 0 23 -79 c12 -44 19 -84 16 -90 -5 -8 14 -11 60 -11 57 0 65 2
51 13 -11 7 -49 110 -96 257 l-79 245 -42 3 -41 3 7 -38z"/>
<path d="M2506 1274 c-15 -47 -26 -87 -24 -89 2 -3 17 34 32 81 15 47 26 87
24 89 -2 3 -17 -34 -32 -81z"/>
<path d="M2022 1060 l-34 -21 20 -32 c28 -44 86 -74 157 -81 55 -5 56 -4 16 4
-65 14 -111 65 -111 125 0 30 -5 31 -48 5z"/>
<path d="M377 1024 c-9 -35 -39 -68 -77 -83 -19 -7 5 -10 95 -10 102 -1 116 1
95 12 -13 7 -27 23 -31 37 -4 14 -7 18 -8 9 -1 -18 -32 -49 -49 -49 -6 0 -12
23 -14 58 -3 50 -4 53 -11 26z"/>
<path d="M1577 964 c-9 -12 -27 -25 -39 -27 -13 -2 11 -4 52 -5 45 0 65 3 50
7 -14 4 -29 16 -35 27 -10 21 -10 21 -28 -2z"/>
<path d="M340 370 l0 -80 58 2 c56 2 56 2 10 5 -46 4 -48 6 -48 34 0 27 2 29
40 29 22 0 40 5 40 10 0 6 -18 10 -40 10 -36 0 -40 3 -40 25 0 23 4 25 45 25
25 0 45 5 45 10 0 6 -25 10 -55 10 l-55 0 0 -80z"/>
<path d="M574 388 c37 -98 38 -99 49 -95 5 1 23 36 38 77 33 85 32 80 20 80
-5 0 -19 -29 -31 -65 -12 -36 -25 -65 -28 -65 -4 0 -18 29 -30 65 -13 36 -28
65 -33 65 -5 0 2 -28 15 -62z"/>
<path d="M800 370 l0 -80 58 2 57 2 -52 3 c-51 4 -53 5 -53 34 0 28 2 29 45
29 25 0 45 5 45 10 0 6 -20 10 -45 10 -41 0 -45 2 -45 25 0 23 3 25 50 25 28
0 50 5 50 10 0 6 -25 10 -55 10 l-55 0 0 -80z"/>
<path d="M1020 370 c0 -47 4 -80 10 -80 6 0 10 16 10 35 0 30 3 35 24 35 39 0
56 -11 56 -35 0 -13 5 -27 10 -30 14 -8 13 48 -1 62 -8 8 -8 13 0 17 18 12 13
54 -8 66 -11 5 -38 10 -60 10 l-41 0 0 -80z m98 48 c20 -20 -4 -48 -43 -48
-32 0 -35 2 -35 30 0 27 3 30 33 30 18 0 38 -5 45 -12z"/>
<path d="M1240 442 c0 -4 12 -25 27 -47 15 -22 30 -56 34 -75 l7 -35 1 35 c1
20 13 54 31 80 16 24 27 46 25 49 -6 5 -5 6 -37 -42 l-25 -37 -27 40 c-25 39
-36 48 -36 32z"/>
<path d="M1470 440 c0 -5 13 -10 30 -10 l29 0 4 -72 3 -73 2 73 2 72 30 0 c17
0 30 5 30 10 0 6 -28 10 -65 10 -37 0 -65 -4 -65 -10z"/>
<path d="M1713 370 c0 -47 2 -68 4 -47 l4 37 49 0 49 0 4 -37 c2 -21 4 0 4 47
0 47 -2 68 -4 48 l-4 -38 -49 0 -49 0 -4 38 c-2 20 -4 -1 -4 -48z"/>
<path d="M1963 370 c0 -47 2 -66 4 -42 2 23 2 61 0 85 -2 23 -4 4 -4 -43z"/>
<path d="M2090 370 c0 -94 18 -108 22 -18 l3 63 40 -63 c54 -84 65 -81 65 18
0 47 -4 80 -10 80 -6 0 -10 -29 -10 -67 l0 -67 -46 67 c-26 37 -50 67 -55 67
-5 0 -9 -36 -9 -80z"/>
<path d="M2363 435 c-30 -21 -39 -74 -19 -113 17 -33 52 -47 88 -33 13 4 29 6
36 4 8 -3 12 8 12 36 0 41 0 41 -37 40 -31 -2 -33 -3 -10 -6 49 -8 29 -63 -23
-63 -56 0 -81 79 -40 120 26 26 46 25 75 -5 15 -14 25 -19 25 -11 0 20 -34 46
-61 46 -14 0 -34 -7 -46 -15z"/>
<path d="M960 90 c0 -47 4 -80 10 -80 6 0 10 16 10 35 0 35 0 35 45 35 45 0
45 0 45 -35 0 -19 5 -35 10 -35 6 0 10 33 10 80 0 47 -4 80 -10 80 -5 0 -10
-16 -10 -35 0 -35 0 -35 -45 -35 -45 0 -45 0 -45 35 0 19 -4 35 -10 35 -6 0
-10 -33 -10 -80z"/>
<path d="M1233 155 c-46 -32 -36 -127 14 -146 37 -14 52 -11 78 16 70 69 -13
186 -92 130z m84 -21 c20 -20 24 -31 19 -56 -8 -42 -23 -58 -54 -58 -69 0 -87
110 -22 133 26 9 30 8 57 -19z"/>
<path d="M1472 88 l1 -83 6 65 6 65 27 -62 c15 -35 31 -63 36 -63 5 0 20 26
35 58 l25 57 1 -57 c1 -32 6 -58 11 -58 6 0 10 33 10 80 0 48 -4 80 -10 80
-10 0 -31 -42 -62 -120 -9 -23 -12 -20 -40 48 -17 39 -35 72 -39 72 -5 0 -8
-37 -7 -82z"/>
<path d="M1750 90 l0 -80 58 2 57 2 -52 3 c-51 4 -53 5 -53 34 0 28 2 29 45
29 25 0 45 5 45 10 0 6 -20 10 -45 10 -41 0 -45 2 -45 25 0 23 3 25 50 25 28
0 50 5 50 10 0 6 -25 10 -55 10 l-55 0 0 -80z"/>
</g>
</svg>
